<?xml version="1.0" encoding="UTF-8" standalone="no"?>
<!-- Created with Inkscape (http://www.inkscape.org/) -->

<svg
   version="1.1"
   id="svg1"
   width="640"
   height="640"
   viewBox="0 0 640 640"
   xmlns="http://www.w3.org/2000/svg"
   xmlns:svg="http://www.w3.org/2000/svg">
  <defs
     id="defs1" />
  <g
     id="g1">
    <path
       style="fill:#ff008c;fill-opacity:1"
       d="M 303.73729,633.4879 C 231.00632,629.78332 158.71344,598.23199 104.98047,546.74295 52.138256,496.10746 19.211336,429.77434 10.106696,355.6144 8.5120564,342.62566 8.8196264,297.55782 10.601006,283.1822 21.808336,192.73974 71.954206,112.04582 149.08475,60.336377 c 39.10736,-26.21815 85.67788,-43.43948 134.58686,-49.76892 13.95306,-1.8056999 58.14724,-2.1107599 71.54904,-0.49388 67.96694,8.19998 129.09411,36.13855 178.13727,81.41878 47.85197,44.180433 79.48877,99.280533 93.76447,163.304253 5.2916,23.73182 6.529,36.25126 6.5257,66.02519 0,32.49996 -1.8068,48.38252 -8.5516,75.32213 -11.0348,44.07388 -30.8383,84.28105 -59.1025,119.9959 -10.4464,13.20007 -35.67527,38.42898 -48.87535,48.87534 -61.17969,48.41673 -135.96791,72.41581 -213.38135,68.47273 z M 194.59884,515.14862 c 18.54285,-4.97329 31.49301,-15.1784 39.37536,-31.02897 4.43992,-8.92819 4.493,-9.15251 5.32731,-22.51271 0.4635,-7.42206 1.16848,-59.74359 1.56663,-116.27008 0.56638,-80.40972 0.99546,-103.25248 1.97173,-104.96762 0.6863,-1.20571 2.47269,-2.82561 3.96976,-3.59977 3.48988,-1.80469 108.59969,-23.45545 156.62135,-32.26123 14.42564,-2.64524 17.64589,-2.32762 19.58664,1.93187 0.80131,1.75869 1.11373,23.3737 1.11373,77.05454 v 74.61016 l -3.02862,3.67425 c -4.04315,4.90504 -6.92411,5.99303 -29.27222,11.05457 -31.13496,7.05164 -38.93906,10.28729 -48.94467,20.2929 -11.03799,11.03799 -15.70254,25.30259 -13.64149,41.71689 2.15463,17.15955 14.05877,31.94133 30.77472,38.21401 15.18805,5.69935 45.69225,2.05448 61.89295,-7.39542 8.7485,-5.10302 16.60693,-13.70205 21.46475,-23.48764 4.03379,-8.12566 4.50738,-9.84166 5.27504,-19.11326 1.20063,-14.5011 1.17548,-310.81313 -0.0267,-315.00503 -1.3026,-4.5419 -4.53644,-7.73396 -9.07262,-8.955433 -3.10464,-0.83599 -6.75896,-0.48015 -20.12943,1.960113 -16.20916,2.95835 -155.83797,30.82305 -179.30861,35.78331 -18.66473,3.94458 -22.87408,7.6332 -23.86456,20.91231 -0.30681,4.11333 -0.81893,59.45379 -1.13805,122.97879 -0.31912,63.525 -0.79991,116.38093 -1.06842,117.45762 -2.34675,9.41022 -5.31954,11.00518 -31.79977,17.06121 -11.50803,2.63189 -23.12603,5.53796 -25.81776,6.45793 -14.31106,4.89117 -25.32433,13.628 -31.10317,24.67415 -4.63366,8.85718 -5.74342,13.51142 -5.69427,23.88147 0.10592,22.35272 13.60737,40.45004 34.60935,46.39032 7.51275,2.12493 29.93759,1.28639 40.36108,-1.50925 z"
       id="path1" />
  </g>
</svg>
