<?xml version="1.0" encoding="UTF-8" standalone="no"?>
<!-- Created with Inkscape (http://www.inkscape.org/) -->

<svg
   version="1.1"
   id="svg1"
   width="300"
   height="300"
   viewBox="0 0 300 300"
   sodipodi:docname="logo-boutique.svg"
   inkscape:version="1.3 (0e150ed, 2023-07-21)"
   xmlns:inkscape="http://www.inkscape.org/namespaces/inkscape"
   xmlns:sodipodi="http://sodipodi.sourceforge.net/DTD/sodipodi-0.dtd"
   xmlns="http://www.w3.org/2000/svg"
   xmlns:svg="http://www.w3.org/2000/svg">
  <defs
     id="defs1" />
  <sodipodi:namedview
     id="namedview1"
     pagecolor="#ffffff"
     bordercolor="#000000"
     borderopacity="0.25"
     inkscape:showpageshadow="2"
     inkscape:pageopacity="0.0"
     inkscape:pagecheckerboard="0"
     inkscape:deskcolor="#d1d1d1"
     inkscape:zoom="0.80260476"
     inkscape:cx="138.2997"
     inkscape:cy="19.312121"
     inkscape:window-width="1280"
     inkscape:window-height="722"
     inkscape:window-x="0"
     inkscape:window-y="25"
     inkscape:window-maximized="0"
     inkscape:current-layer="g1" />
  <g
     inkscape:groupmode="layer"
     inkscape:label="Image"
     id="g1">
    <path
       style="fill:#ff008c;stroke-width:0.937844;fill-opacity:1"
       d="M 128.95259,289.95587 C 35.042165,276.41878 -18.685631,172.55332 23.974622,87.014659 c 51.389509,-103.041804 201.126058,-103.041804 252.119228,0 50.70322,102.455901 -33.98,219.253291 -147.14126,202.941211 z m -15.52905,-52.40159 c 17.71143,-5.07956 11.20096,-32.23485 -6.76072,-28.19913 -14.251573,3.20212 -15.039803,23.9655 -1.06845,28.14477 3.70548,1.10843 4.14329,1.11147 7.82917,0.0544 z m 90.72449,-2.00545 c 5.22003,-3.20808 7.96615,-10.91314 5.87055,-16.47157 -3.89589,-10.33352 -16.28717,-13.21157 -23.93865,-5.56009 -12.25749,12.25749 3.23451,31.14792 18.0681,22.03166 z m -61.12778,-35.55676 c 12.89535,-1.04501 33.3638,-2.1531 45.48543,-2.46244 24.07403,-0.61435 25.32179,-0.91342 25.32179,-6.06909 0,-6.55838 -10.74153,-6.94851 -70.08971,-2.54569 -31.5111,2.33769 -33.35498,2.19674 -33.82441,-2.58554 -0.43995,-4.48212 -0.65429,-4.43787 51.39485,-10.61192 55.04511,-6.52943 52.08751,-6.04532 53.89964,-8.82266 1.08685,-1.66574 14.56298,-67.875358 14.56298,-71.549409 0,-5.668667 2.2668,-5.476099 -70.46324,-5.986052 C 92.429437,88.890347 92.429437,88.890347 89.120597,77.950997 84.445902,62.495984 85.312314,63.099636 67.804742,63.099636 c -17.697714,0 -21.485819,2.041724 -17.996557,9.699821 1.571291,3.448602 4.700946,4.36784 14.870843,4.36784 9.258941,0 9.258941,0 10.697648,4.454759 16.944451,52.466164 26.953134,90.951724 25.057314,96.350824 -7.411833,21.10808 0.88594,25.39843 42.58626,22.01919 z m -28.94484,-38.16234 c -0.84589,-2.97804 -2.97356,-10.16245 -4.72817,-15.96536 -3.19019,-10.55075 -3.19019,-10.55075 11.25557,-10.55075 14.44576,0 14.44576,0 14.44576,14.47339 0,16.51853 0.93509,15.0003 -9.84736,15.98851 -3.6107,0.33092 -7.24507,0.79678 -8.07637,1.03525 -1.15787,0.33215 -1.87127,-0.83314 -3.04943,-4.98104 z m 27.53807,-12.44844 c 0,-14.06767 0,-14.06767 15.94335,-14.06767 15.94335,0 15.94335,0 15.94335,12.17411 0,11.86502 -0.0536,12.18565 -2.11015,12.62887 -2.50459,0.53976 -26.24636,3.33235 -28.33077,3.33235 -1.23823,0 -1.44578,-2.01957 -1.44578,-14.06766 z m 38.45161,-2.34461 c 0,-11.72306 0,-11.72306 13.59873,-11.72306 10.25275,0 13.59921,0.28845 13.60065,1.17231 0.0241,14.81839 -3.41231,19.93252 -14.24924,21.20583 -14.4398,1.69665 -12.95014,2.92231 -12.95014,-10.65508 z M 102.2072,121.94935 c -1.71775,-5.9229 -4.018133,-13.62096 -5.184653,-17.35012 -0.28516,-0.9116 3.902213,-1.1723 18.829653,-1.1723 19.19637,0 19.19637,0 19.19637,12.66089 0,12.6609 0,12.6609 -15.43471,12.6609 -15.43471,0 -15.43471,0 -17.40666,-6.79937 z m 39.40628,-5.86153 c 0,-12.66089 0,-12.66089 15.94335,-12.66089 15.94335,0 15.94335,0 15.94335,12.66089 0,12.6609 0,12.6609 -15.94335,12.6609 -15.94335,0 -15.94335,0 -15.94335,-12.6609 z m 38.45161,0 c 0,-12.66089 0,-12.66089 16.88119,-12.66089 9.28465,0 16.88119,0.12337 16.88119,0.27417 0,0.15078 -1.05278,5.74268 -2.3395,12.42643 -1.28673,6.68374 -2.3418,12.25777 -2.34461,12.38673 -0.003,0.12895 -6.54657,0.23446 -14.54169,0.23446 -14.53658,0 -14.53658,0 -14.53658,-12.6609 z"
       id="path1" />
  </g>
</svg>
