<?xml version="1.0" encoding="UTF-8" standalone="no"?>
<!-- Created with Inkscape (http://www.inkscape.org/) -->

<svg
   width="49.685387mm"
   height="49.67849mm"
   viewBox="0 0 49.685387 49.67849"
   version="1.1"
   id="svg1"
   inkscape:version="1.3 (0e150ed, 2023-07-21)"
   sodipodi:docname="logo-soundcloud.svg"
   xmlns:inkscape="http://www.inkscape.org/namespaces/inkscape"
   xmlns:sodipodi="http://sodipodi.sourceforge.net/DTD/sodipodi-0.dtd"
   xmlns="http://www.w3.org/2000/svg"
   xmlns:svg="http://www.w3.org/2000/svg">
  <sodipodi:namedview
     id="namedview1"
     pagecolor="#ffffff"
     bordercolor="#000000"
     borderopacity="0.25"
     inkscape:showpageshadow="false"
     inkscape:pageopacity="0.0"
     inkscape:pagecheckerboard="true"
     inkscape:deskcolor="#d1d1d1"
     inkscape:document-units="mm"
     showborder="false"
     borderlayer="false"
     shape-rendering="auto"
     inkscape:zoom="1.4471535"
     inkscape:cx="35.241597"
     inkscape:cy="79.811852"
     inkscape:window-width="1280"
     inkscape:window-height="800"
     inkscape:window-x="0"
     inkscape:window-y="0"
     inkscape:window-maximized="0"
     inkscape:current-layer="layer1" />
  <defs
     id="defs1">
    <clipPath
       clipPathUnits="userSpaceOnUse"
       id="clipPath97">
      <path
         id="path97"
         d="m 828.498,685.74939 c -1.36666,0.45334 -1.82133,0.92 -1.82133,2.28 v 57.84 c 0,0.90667 0.90933,1.81333 1.82133,2.26667 h 50.548 c 10.01867,0 18.21467,-8.18667 18.21467,-18.21334 0,-10.01333 -8.196,-18.21333 -18.21467,-18.21333 -2.27733,0 -5.01066,0.45333 -6.83066,1.37333 -1.368,-16.39999 -15.02934,-29.14666 -31.87734,-29.14666 -0.91066,0 -1.36666,0 -2.27733,0 -3.188,0 -6.376,0.90667 -9.56267,1.81333 m -7.28666,4.10667 -0.91067,40.97333 0.91067,15.04 c 0,0.90667 0.91066,1.81333 1.82133,1.81333 0.91067,0 1.82133,-0.90666 1.82133,-1.81333 l 0.912,-15.04 -0.912,-40.97333 c 0,-0.92 -0.91066,-1.82667 -1.82133,-1.82667 H 822.578 c -0.91066,0 -1.36666,0.90667 -1.36666,1.82667 m -6.37467,3.18667 -0.912,37.78666 0.912,15.04 c 0,0.90667 0.91067,1.81333 1.82133,1.81333 0.91067,0 1.82134,-0.90666 1.82134,-1.81333 l 0.91066,-15.04 -0.91066,-37.78666 c 0,-0.92 -0.91067,-1.82667 -1.82134,-1.82667 -0.91066,0 -1.82133,0.90667 -1.82133,1.82667 m -18.216,4.09333 -0.91066,33.69333 0.91066,15.49333 c 0,0.90667 0.45467,1.36 1.36533,1.36 0.91067,0 1.36667,-0.45333 1.36667,-1.36 l 0.91067,-15.49333 -0.91067,-33.69333 c 0,-0.90667 -0.91067,-1.36 -1.36667,-1.36 -0.45466,0 -1.36533,0.45333 -1.36533,1.36 m 5.92,0.90667 -0.91067,32.78666 0.91067,15.49333 c 0,0.90667 0.91067,1.81334 1.82133,1.81334 0.91067,0 1.82134,-0.90667 1.82134,-1.81334 l 0.91066,-15.49333 -0.91066,-32.78666 c 0,-0.90667 -0.91067,-1.81334 -1.82134,-1.81334 -0.91066,0 -1.82133,0.90667 -1.82133,1.81334 m -11.84,0 -0.91066,32.78666 0.91066,15.49333 c 0,0.90667 0.45467,1.36 1.36534,1.36 0.912,0 1.36666,-0.45333 1.36666,-1.36 l 0.91067,-15.49333 -0.91067,-32.78666 c 0,-0.90667 -0.45466,-1.36 -1.36666,-1.36 -0.91067,0 -1.36534,0.90666 -1.36534,1.36 m 18.216,1.37333 -0.91067,31.41333 0.91067,15.04 c 0,0.90667 0.91067,1.81333 1.82133,1.81333 0.91067,0 1.82134,-0.90666 1.82134,-1.81333 l 0.91066,-15.04 -0.91066,-31.86666 c 0,-0.92 -0.91067,-1.82667 -1.82134,-1.82667 -1.36666,0.45333 -1.82133,0.90667 -1.82133,2.28 m -24.136,1.36 -0.91066,30.05333 0.91066,15.94667 c 0,0.90666 0.45467,1.36 1.36534,1.36 0.456,0 1.36666,-0.45334 1.36666,-1.36 l 1.36667,-15.94667 -1.36667,-30.05333 c 0,-0.90667 -0.45466,-1.36 -1.36666,-1.36 -0.91067,0 -1.36534,0.45333 -1.36534,1.36 m -5.92,5.46667 -1.36666,24.58666 1.36666,15.94667 c 0,0.45333 0.45467,0.90666 0.91067,0.90666 0.91067,0 1.36667,-0.45333 1.36667,-0.90666 l 1.36533,-15.94667 -1.36533,-24.58666 c 0,-0.45334 -0.456,-0.90667 -0.91067,-0.90667 -0.912,0 -1.36667,0.45333 -1.36667,0.90667 m -11.84,8.19999 -1.36666,16.38667 1.36666,15.49333 c 0,0.45334 0.456,0.90667 0.91067,0.90667 0.456,0 0.91067,-0.45333 0.91067,-0.90667 l 1.36666,-15.49333 -1.36666,-16.38667 c 0,-0.45333 -0.45467,-0.90666 -0.91067,-0.90666 -0.45467,0 -0.45467,0.45333 -0.91067,0.90666 m -5.464,0.45334 -1.36666,15.93333 1.36666,15.04 c 0,0.45333 0.45467,0.90667 0.91067,0.90667 0,0 0.45467,-0.45334 0.45467,-0.90667 l 1.36666,-15.04 -1.36666,-15.93333 c 0,-0.45334 -0.45467,-0.90667 -0.91067,-0.90667 0,0.45333 -0.45467,0.45333 -0.45467,0.90667 m 11.384,0.90666 -0.91066,15.02667 0.91066,15.94667 c 0,0.45333 0.456,0.90666 0.91067,0.90666 0.456,0 0.91067,-0.45333 0.91067,-0.90666 l 1.82133,-15.94667 -1.36533,-15.02667 c 0,-0.45333 -0.456,-0.90666 -0.91067,-0.90666 -0.91067,0 -1.36667,0.45333 -1.36667,0.90666 m -17.30533,1.82667 -1.36533,13.2 1.36533,13.21333 c 0,0.45334 0.456,0.45334 0.456,0.45334 0.45467,0 0.45467,-0.45334 0.45467,-0.45334 l 1.82266,-13.21333 -1.82266,-13.2 c 0,-0.45333 -0.45467,-0.45333 -0.45467,-0.45333 v 0 l -0.456,0.45333 m -5.464,5.01333 -0.91067,8.18667 0.91067,8.2 c 0,0.45333 0.45467,0.45333 0.45467,0.45333 0.456,0 0.456,-0.45333 0.456,-0.45333 l 1.36666,-8.2 -1.36666,-8.18667 c 0,-0.45333 -0.456,-0.45333 -0.456,-0.45333 0,0 -0.45467,0 -0.45467,0.45333"
         style="display:none;fill:#ffffff;fill-opacity:1;fill-rule:nonzero;stroke:none;stroke-width:0.133333" />
      <path
         id="lpe_path-effect97"
         style="fill:#ffffff;fill-opacity:1;fill-rule:nonzero;stroke:none;stroke-width:0.133333"
         class="powerclip"
         d="m 728.26067,627.70273 h 190 v 190.00693 h -190 z M 828.498,685.74939 c -1.36666,0.45334 -1.82133,0.92 -1.82133,2.28 v 57.84 c 0,0.90667 0.90933,1.81333 1.82133,2.26667 h 50.548 c 10.01867,0 18.21467,-8.18667 18.21467,-18.21334 0,-10.01333 -8.196,-18.21333 -18.21467,-18.21333 -2.27733,0 -5.01066,0.45333 -6.83066,1.37333 -1.368,-16.39999 -15.02934,-29.14666 -31.87734,-29.14666 -0.91066,0 -1.36666,0 -2.27733,0 -3.188,0 -6.376,0.90667 -9.56267,1.81333 m -7.28666,4.10667 -0.91067,40.97333 0.91067,15.04 c 0,0.90667 0.91066,1.81333 1.82133,1.81333 0.91067,0 1.82133,-0.90666 1.82133,-1.81333 l 0.912,-15.04 -0.912,-40.97333 c 0,-0.92 -0.91066,-1.82667 -1.82133,-1.82667 H 822.578 c -0.91066,0 -1.36666,0.90667 -1.36666,1.82667 m -6.37467,3.18667 -0.912,37.78666 0.912,15.04 c 0,0.90667 0.91067,1.81333 1.82133,1.81333 0.91067,0 1.82134,-0.90666 1.82134,-1.81333 l 0.91066,-15.04 -0.91066,-37.78666 c 0,-0.92 -0.91067,-1.82667 -1.82134,-1.82667 -0.91066,0 -1.82133,0.90667 -1.82133,1.82667 m -18.216,4.09333 -0.91066,33.69333 0.91066,15.49333 c 0,0.90667 0.45467,1.36 1.36533,1.36 0.91067,0 1.36667,-0.45333 1.36667,-1.36 l 0.91067,-15.49333 -0.91067,-33.69333 c 0,-0.90667 -0.91067,-1.36 -1.36667,-1.36 -0.45466,0 -1.36533,0.45333 -1.36533,1.36 m 5.92,0.90667 -0.91067,32.78666 0.91067,15.49333 c 0,0.90667 0.91067,1.81334 1.82133,1.81334 0.91067,0 1.82134,-0.90667 1.82134,-1.81334 l 0.91066,-15.49333 -0.91066,-32.78666 c 0,-0.90667 -0.91067,-1.81334 -1.82134,-1.81334 -0.91066,0 -1.82133,0.90667 -1.82133,1.81334 m -11.84,0 -0.91066,32.78666 0.91066,15.49333 c 0,0.90667 0.45467,1.36 1.36534,1.36 0.912,0 1.36666,-0.45333 1.36666,-1.36 l 0.91067,-15.49333 -0.91067,-32.78666 c 0,-0.90667 -0.45466,-1.36 -1.36666,-1.36 -0.91067,0 -1.36534,0.90666 -1.36534,1.36 m 18.216,1.37333 -0.91067,31.41333 0.91067,15.04 c 0,0.90667 0.91067,1.81333 1.82133,1.81333 0.91067,0 1.82134,-0.90666 1.82134,-1.81333 l 0.91066,-15.04 -0.91066,-31.86666 c 0,-0.92 -0.91067,-1.82667 -1.82134,-1.82667 -1.36666,0.45333 -1.82133,0.90667 -1.82133,2.28 m -24.136,1.36 -0.91066,30.05333 0.91066,15.94667 c 0,0.90666 0.45467,1.36 1.36534,1.36 0.456,0 1.36666,-0.45334 1.36666,-1.36 l 1.36667,-15.94667 -1.36667,-30.05333 c 0,-0.90667 -0.45466,-1.36 -1.36666,-1.36 -0.91067,0 -1.36534,0.45333 -1.36534,1.36 m -5.92,5.46667 -1.36666,24.58666 1.36666,15.94667 c 0,0.45333 0.45467,0.90666 0.91067,0.90666 0.91067,0 1.36667,-0.45333 1.36667,-0.90666 l 1.36533,-15.94667 -1.36533,-24.58666 c 0,-0.45334 -0.456,-0.90667 -0.91067,-0.90667 -0.912,0 -1.36667,0.45333 -1.36667,0.90667 m -11.84,8.19999 -1.36666,16.38667 1.36666,15.49333 c 0,0.45334 0.456,0.90667 0.91067,0.90667 0.456,0 0.91067,-0.45333 0.91067,-0.90667 l 1.36666,-15.49333 -1.36666,-16.38667 c 0,-0.45333 -0.45467,-0.90666 -0.91067,-0.90666 -0.45467,0 -0.45467,0.45333 -0.91067,0.90666 m -5.464,0.45334 -1.36666,15.93333 1.36666,15.04 c 0,0.45333 0.45467,0.90667 0.91067,0.90667 0,0 0.45467,-0.45334 0.45467,-0.90667 l 1.36666,-15.04 -1.36666,-15.93333 c 0,-0.45334 -0.45467,-0.90667 -0.91067,-0.90667 0,0.45333 -0.45467,0.45333 -0.45467,0.90667 m 11.384,0.90666 -0.91066,15.02667 0.91066,15.94667 c 0,0.45333 0.456,0.90666 0.91067,0.90666 0.456,0 0.91067,-0.45333 0.91067,-0.90666 l 1.82133,-15.94667 -1.36533,-15.02667 c 0,-0.45333 -0.456,-0.90666 -0.91067,-0.90666 -0.91067,0 -1.36667,0.45333 -1.36667,0.90666 m -17.30533,1.82667 -1.36533,13.2 1.36533,13.21333 c 0,0.45334 0.456,0.45334 0.456,0.45334 0.45467,0 0.45467,-0.45334 0.45467,-0.45334 l 1.82266,-13.21333 -1.82266,-13.2 c 0,-0.45333 -0.45467,-0.45333 -0.45467,-0.45333 v 0 l -0.456,0.45333 m -5.464,5.01333 -0.91067,8.18667 0.91067,8.2 c 0,0.45333 0.45467,0.45333 0.45467,0.45333 0.456,0 0.456,-0.45333 0.456,-0.45333 l 1.36666,-8.2 -1.36666,-8.18667 c 0,-0.45333 -0.456,-0.45333 -0.456,-0.45333 0,0 -0.45467,0 -0.45467,0.45333" />
    </clipPath>
    <inkscape:path-effect
       effect="powerclip"
       id="path-effect97"
       is_visible="true"
       lpeversion="1"
       inverse="true"
       flatten="false"
       hide_clip="false"
       message="Utilise la règle de remplissage « fill-rule: evenodd » de la boîte de dialogue &lt;b&gt;Fond et contour&lt;/b&gt; en l'absence de résultat de mise à plat après une conversion en chemin." />
  </defs>
  <g
     inkscape:label="Calque 1"
     inkscape:groupmode="layer"
     id="layer1"
     transform="translate(-87.191952,-99.631097)">
    <g
       id="group-R5"
       transform="matrix(0.0748336,0,0,0.0748336,37.260614,78.357039)"
       style="display:inline;fill:#ff008c;fill-opacity:1"
       inkscape:label="group-R5">
      <path
         id="path59"
         d="m 913.26067,722.70939 c 0,49.69333 -40.29467,90.00027 -90,90.00027 -49.70533,0 -90,-40.30694 -90,-90.00027 0,-49.70666 40.29467,-90.00666 90,-90.00666 49.70533,0 90,40.3 90,90.00666"
         style="display:inline;fill:#ff008c;fill-opacity:1;fill-rule:evenodd;stroke:none;stroke-width:0.133333"
         clip-path="url(#clipPath97)"
         inkscape:path-effect="#path-effect97"
         inkscape:original-d="m 913.26067,722.70939 c 0,49.69333 -40.29467,90.00027 -90,90.00027 -49.70533,0 -90,-40.30694 -90,-90.00027 0,-49.70666 40.29467,-90.00666 90,-90.00666 49.70533,0 90,40.3 90,90.00666"
         transform="matrix(3.6735216,0,0,3.6735216,-2024.1318,-2039.5958)" />
    </g>
  </g>
</svg>
