<?xml version="1.0" encoding="UTF-8" standalone="no"?>
<!-- Created with Inkscape (http://www.inkscape.org/) -->

<svg
   width="149.48106mm"
   height="149.83722mm"
   viewBox="0 0 149.48106 149.83722"
   version="1.1"
   id="svg1"
   xml:space="preserve"
   sodipodi:docname="Document sans nom 1"
   xmlns:inkscape="http://www.inkscape.org/namespaces/inkscape"
   xmlns:sodipodi="http://sodipodi.sourceforge.net/DTD/sodipodi-0.dtd"
   xmlns:xlink="http://www.w3.org/1999/xlink"
   xmlns="http://www.w3.org/2000/svg"
   xmlns:svg="http://www.w3.org/2000/svg"><sodipodi:namedview
     id="namedview1"
     pagecolor="#ffffff"
     bordercolor="#000000"
     borderopacity="0.25"
     inkscape:showpageshadow="2"
     inkscape:pageopacity="0.0"
     inkscape:pagecheckerboard="true"
     inkscape:deskcolor="#d1d1d1"
     inkscape:document-units="mm" /><defs
     id="defs1"><color-profile
       name="Adobe-RGB-1998"
       xlink:href="file:///System/Library/ColorSync/Profiles/AdobeRGB1998.icc"
       id="color-profile1" /><color-profile
       name="ACES-CG-Linear-Academy-Color-Encoding-System-AP1"
       xlink:href="file:///System/Library/ColorSync/Profiles/ACESCG%20Linear.icc"
       id="color-profile2" /></defs><g
     inkscape:label="Calque 1"
     inkscape:groupmode="layer"
     id="layer1"
     transform="translate(-35.194348,-80.300573)"><path
       style="display:inline;opacity:1;fill:#ff008c;stroke:#ff008c;stroke-width:5.82663;stroke-dasharray:none;stroke-opacity:1"
       d="m 397.12207,866.70116 c -29.85632,-3.34344 -49.21172,-7.27777 -70.87282,-14.40614 -69.01213,-22.71095 -128.44456,-74.11638 -161.58004,-139.75689 -12.59044,-24.94133 -20.26596,-48.10536 -26.10514,-78.78285 -2.41767,-12.70186 -2.6712,-17.38985 -2.62909,-48.61524 0.0447,-33.11849 0.18062,-35.1921 3.26433,-49.78669 5.91685,-28.00327 13.48485,-50.07898 25.46963,-74.29443 13.9855,-28.25794 29.90337,-50.23763 53.11827,-73.34667 45.07949,-44.87393 104.02112,-73.01988 168.13947,-80.29038 17.57583,-1.99295 57.84715,-0.78478 74.60769,2.23828 91.21141,16.45163 164.23291,70.29821 204.81648,151.03315 21.95671,43.67958 31.09541,85.77672 29.55713,136.15394 -1.76916,57.93862 -21.03205,112.13312 -56.67451,159.44887 -9.81679,13.03189 -35.73713,39.72488 -47.89709,49.32482 -43.89325,34.65246 -103.34047,57.8756 -153.86197,60.10638 -24.95928,1.10208 -35.80957,1.37059 -39.35234,0.97385 z m 64.42984,-103.44403 c 42.61167,-0.89759 45.01607,-1.06837 56.22967,-3.99373 41.996,-10.95575 68.01828,-41.98175 73.20987,-87.28711 1.48533,-12.96203 1.50113,-149.84046 0.0193,-167.71765 -4.46194,-53.83203 -37.97476,-88.12762 -91.48173,-93.61847 -15.95361,-1.63715 -154.63573,-1.60897 -169.37374,0.0344 -23.78298,2.65196 -45.53599,11.82998 -60.18598,25.39363 -13.92718,12.89442 -22.01512,26.82851 -27.76477,47.83375 l -3.18123,11.62204 -0.0236,90.78749 -0.0236,90.7875 3.19905,11.71451 c 4.86388,17.81097 12.07674,31.37395 22.67761,42.64274 20.36468,21.64779 41.2045,29.94889 79.55398,31.68865 25.98058,1.17865 64.7557,1.21579 117.14516,0.11224 z"
       id="path4"
       transform="scale(0.26458333)" /><path
       style="display:inline;opacity:1;fill:#ff008c;stroke:#ff008c;stroke-width:5.82663;stroke-dasharray:none;stroke-opacity:1"
       d="m 366.0786,730.32488 c -21.28647,-0.58932 -33.98897,-1.46857 -40.41507,-2.79749 -21.30004,-4.40484 -36.69482,-15.58021 -45.18305,-32.79927 -8.75475,-17.7597 -8.68285,-16.86786 -8.6939,-107.8309 -0.011,-90.34798 0.031,-90.90019 8.22838,-108.21995 7.39699,-15.62867 22.52367,-27.48586 41.17351,-32.27425 10.97326,-2.81741 41.52553,-4.14913 94.67683,-4.12681 53.0063,0.0223 80.50456,1.21209 92.54435,4.00431 16.57354,3.84366 33.46058,16.04958 40.62404,29.36299 8.52149,15.8373 10.26859,34.58308 10.25966,110.08226 -0.006,53.10229 -1.35195,84.89291 -4.01479,94.84713 -4.8133,17.993 -16.99513,33.77462 -31.20214,40.42253 -15.87173,7.42689 -21.79722,8.20883 -71.3104,9.41034 -24.80549,0.60194 -47.47307,1.02337 -50.37242,0.93651 -2.89934,-0.0869 -19.24109,-0.54469 -36.315,-1.0174 z m 76.11907,-56.12889 c 57.50059,-19.70125 81.63763,-83.25519 51.32963,-135.15326 -5.9298,-10.15392 -19.95492,-24.43736 -29.91304,-30.46398 -25.8713,-15.65722 -59.47228,-17.73817 -86.74481,-5.37221 -24.47107,11.09571 -43.97595,34.71619 -50.64198,61.32762 -4.52832,18.07751 -2.42346,42.51287 5.1341,59.60186 10.76467,24.34082 34.15735,44.06584 60.80313,51.27001 12.03089,3.25277 38.9046,2.60284 50.03297,-1.21004 z m 80.13991,-164.43614 c 11.01022,-8.39791 12.05506,-25.41489 2.07603,-33.81169 -14.52515,-12.22211 -36.55971,-2.87358 -36.47649,15.47576 0.0623,13.73933 9.45397,22.72566 22.96799,21.9767 5.66005,-0.31369 8.0814,-1.08479 11.43247,-3.64077 z"
       id="path5"
       transform="scale(0.26458333)" /><path
       style="display:inline;opacity:1;fill:#ff008c;stroke:#ff008c;stroke-width:5.82663;stroke-dasharray:none;stroke-opacity:1"
       d="m 395.70124,640.94702 c -8.94875,-3.39997 -12.11469,-5.43652 -19.9249,-12.81709 -19.04831,-18.00048 -23.88807,-44.09142 -12.49743,-67.37306 9.11849,-18.63752 30.42998,-31.8465 51.38143,-31.8465 32.75104,0 58.06151,25.28153 58.00645,57.94011 -0.0375,22.23791 -12.81795,41.99378 -33.56872,51.8901 -8.75137,4.17365 -9.79788,4.38962 -22.64705,4.67375 -11.76581,0.26018 -14.3933,-0.0522 -20.74978,-2.46731 z"
       id="path6"
       transform="scale(0.26458333)" /></g></svg>
