<?xml version="1.0" encoding="UTF-8" standalone="no"?>
<!-- Created with Inkscape (http://www.inkscape.org/) -->

<svg
   width="115.11174mm"
   height="115.09873mm"
   viewBox="0 0 115.11174 115.09873"
   version="1.1"
   id="svg1"
   xml:space="preserve"
   inkscape:export-filename="logo-tiktok.svg"
   inkscape:export-xdpi="112.1055"
   inkscape:export-ydpi="112.1055"
   xmlns:inkscape="http://www.inkscape.org/namespaces/inkscape"
   xmlns:sodipodi="http://sodipodi.sourceforge.net/DTD/sodipodi-0.dtd"
   xmlns="http://www.w3.org/2000/svg"
   xmlns:svg="http://www.w3.org/2000/svg"><sodipodi:namedview
     id="namedview1"
     pagecolor="#ffffff"
     bordercolor="#000000"
     borderopacity="0.25"
     inkscape:showpageshadow="2"
     inkscape:pageopacity="0.0"
     inkscape:pagecheckerboard="0"
     inkscape:deskcolor="#d1d1d1"
     inkscape:document-units="mm"
     showgrid="false"
     inkscape:export-bgcolor="#ffffff00" /><defs
     id="defs1" /><g
     inkscape:label="Calque 1"
     inkscape:groupmode="layer"
     id="layer1"
     transform="translate(-1.0067623,-0.82087938)"><path
       style="fill:#ff008c;fill-opacity:1;stroke-width:0.396912"
       d="M 52.287034,115.69332 C 39.268734,114.19837 27.202054,108.35295 17.869824,99.020738 9.606434,90.757343 4.447617,81.115673 1.9468228,69.261134 c -1.25341403,-5.94157 -1.25341403,-15.88859 0,-21.830159 C 6.974244,23.599447 24.734394,6.0709019 48.423244,1.5606343 c 5.10568,-0.97210093 15.08883,-0.98896193 20.04405,-0.03385 21.04922,4.0571906 37.569816,18.1573247 44.593576,38.0600797 4.07685,11.5523 4.07685,25.96607 0,37.51838 -6.91688,19.599904 -23.434086,33.910296 -43.666486,37.832346 -4.61836,0.89527 -12.76017,1.25494 -17.10735,0.75573 z m 2.84677,-24.419367 c 1.39865,-0.32969 3.57758,-1.15086 4.84208,-1.82483 2.79882,-1.49175 6.62881,-5.38823 8.04679,-8.18648 2.09876,-4.141699 2.23073,-5.398779 2.23073,-21.249159 V 45.375848 l 1.24373,1.046535 c 2.71601,2.28537 6.89644,3.673531 11.6559,3.870461 l 2.77839,0.11497 0.11093,-5.040396 c 0.12585,-5.718037 0.20649,-5.567799 -3.22919,-6.016331 -5.32639,-0.695368 -10.34154,-6.009664 -11.18499,-11.852148 -0.14869,-1.029899 -0.4989,-2.06223 -0.77825,-2.294072 -0.31824,-0.264117 -2.48837,-0.380058 -5.8113,-0.310473 l -5.30339,0.111057 -0.19845,24.608543 c -0.19727,24.46145 -0.20372,24.61836 -1.07782,26.25276 -3.40149,6.360099 -11.24221,6.881189 -15.36098,1.02089 -0.93766,-1.33413 -1.2192,-2.20886 -1.33945,-4.1617 -0.13106,-2.12847 0.007,-2.77536 0.99121,-4.64877 1.59536,-3.03632 3.71919,-4.46779 6.96141,-4.69201 1.36552,-0.0944 2.70602,-0.35104 2.97889,-0.57022 0.581,-0.46667 0.69958,-8.89146 0.13764,-9.77865 -0.5317,-0.83945 -6.80525,-0.38884 -9.56428,0.68696 -4.63509,1.80732 -9.2698,6.44352 -11.15066,11.15423 -1.32518,3.31897 -1.51554,9.40032 -0.40836,13.04547 0.97131,3.197819 3.37451,6.988559 5.73301,9.043089 1.97839,1.72341 6.56642,4.0044 9.0237,4.48625 2.75441,0.54011 5.89911,0.47545 8.67271,-0.17834 z"
       id="path1" /></g></svg>
