<?xml version="1.0" encoding="UTF-8" standalone="no"?>
<!-- Created with Inkscape (http://www.inkscape.org/) -->

<svg
   version="1.1"
   id="svg1"
   width="300"
   height="300"
   viewBox="0 0 300 300"
   sodipodi:docname="logo-boutique.svg"
   inkscape:version="1.3 (0e150ed, 2023-07-21)"
   xmlns:inkscape="http://www.inkscape.org/namespaces/inkscape"
   xmlns:sodipodi="http://sodipodi.sourceforge.net/DTD/sodipodi-0.dtd"
   xmlns="http://www.w3.org/2000/svg"
   xmlns:svg="http://www.w3.org/2000/svg">
  <defs
     id="defs1" />
  <sodipodi:namedview
     id="namedview1"
     pagecolor="#ffffff"
     bordercolor="#000000"
     borderopacity="0.25"
     inkscape:showpageshadow="2"
     inkscape:pageopacity="0.0"
     inkscape:pagecheckerboard="0"
     inkscape:deskcolor="#d1d1d1"
     inkscape:zoom="0.80260476"
     inkscape:cx="138.2997"
     inkscape:cy="19.312121"
     inkscape:window-width="1280"
     inkscape:window-height="722"
     inkscape:window-x="0"
     inkscape:window-y="25"
     inkscape:window-maximized="0"
     inkscape:current-layer="g1" />
  <g
     inkscape:groupmode="layer"
     inkscape:label="Image"
     id="g1">
    <path
       style="fill:#ff008c;fill-opacity:1;stroke-width:0.979281"
       d="M 128.01676,296.10739 C 29.957038,281.97218 -26.144646,173.51757 18.400491,84.199511 72.060573,-23.39505 228.41302,-23.39505 281.65925,84.199511 334.60272,191.18228 246.17789,313.1402 128.01676,296.10739 Z m -16.21518,-54.71688 c 18.49398,-5.30399 11.69586,-33.6591 -7.05943,-29.44507 -14.881258,3.3436 -15.704315,25.02438 -1.11566,29.38831 3.8692,1.1574 4.32635,1.16058 8.17509,0.0568 z m 94.73302,-2.09406 c 5.45067,-3.34982 8.31813,-11.39532 6.12994,-17.19934 -4.06803,-10.79009 -17.0068,-13.79531 -24.99635,-5.80576 -12.79907,12.79907 3.37742,32.52415 18.86641,23.0051 z m -63.82862,-37.12778 c 13.46511,-1.09119 34.83793,-2.24824 47.49514,-2.57124 25.13771,-0.6415 26.4406,-0.95378 26.4406,-6.33725 0,-6.84815 -11.21613,-7.25552 -73.18653,-2.65817 -32.90337,2.44098 -34.82872,2.2938 -35.31889,-2.69977 -0.45939,-4.68016 -0.6832,-4.63395 53.66566,-11.0808 57.4772,-6.81792 54.38892,-6.31242 56.28112,-9.21247 1.13487,-1.73934 15.20642,-70.874335 15.20642,-74.710718 0,-5.919129 2.36696,-5.718053 -73.57656,-6.250538 -69.833054,-0.48964 -69.833054,-0.48964 -73.288091,-11.91233 -4.88124,-16.137871 -3.976546,-15.507548 -22.257666,-15.507548 -18.479663,0 -22.43514,2.131935 -18.79171,10.128394 1.640717,3.600974 4.908651,4.560827 15.527891,4.560827 9.668034,0 9.668034,0 11.170308,4.651587 17.693118,54.784306 28.144018,94.970296 26.164437,100.607946 -7.739315,22.04071 0.925084,26.52062 44.467871,22.99208 z m -30.22373,-39.84849 c -0.88326,-3.10962 -3.10494,-10.61147 -4.93708,-16.67077 -3.33114,-11.01692 -3.33114,-11.01692 11.75289,-11.01692 15.08402,0 15.08402,0 15.08402,15.11288 0,17.24837 0.97641,15.66306 -10.28245,16.69494 -3.77023,0.34554 -7.56518,0.83198 -8.43321,1.08099 -1.20903,0.34682 -1.95395,-0.86995 -3.18417,-5.20112 z m 28.7548,-12.99846 c 0,-14.68923 0,-14.68923 16.64779,-14.68923 16.64778,0 16.64778,0 16.64778,12.71201 0,12.38925 -0.056,12.72405 -2.20338,13.18685 -2.61525,0.56361 -27.40602,3.47959 -29.58253,3.47959 -1.29294,0 -1.50966,-2.1088 -1.50966,-14.68922 z m 40.15054,-2.4482 c 0,-12.24103 0,-12.24103 14.19957,-12.24103 10.70576,0 14.20008,0.30119 14.20158,1.22411 0.0252,15.47312 -3.56308,20.81321 -14.87882,22.14278 -15.07781,1.77161 -13.52233,3.05142 -13.52233,-11.12586 z m -81.29792,-26.19578 c -1.793651,-6.1846 -4.195673,-14.22278 -5.413734,-18.11671 -0.29776,-0.95188 4.074627,-1.22409 19.661614,-1.22409 20.04453,0 20.04453,0 20.04453,13.22028 0,13.22031 0,13.22031 -16.11667,13.22031 -16.11667,0 -16.11667,0 -18.17574,-7.09979 z m 41.14738,-6.12052 c 0,-13.22028 0,-13.22028 16.64779,-13.22028 16.64778,0 16.64778,0 16.64778,13.22028 0,13.22031 0,13.22031 -16.64778,13.22031 -16.64779,0 -16.64779,0 -16.64779,-13.22031 z m 40.15054,0 c 0,-13.22028 0,-13.22028 17.62706,-13.22028 9.69488,0 17.62707,0.12882 17.62707,0.28628 0,0.15744 -1.0993,5.99641 -2.44287,12.97547 -1.34358,6.97905 -2.44527,12.79936 -2.4482,12.93402 -0.003,0.13465 -6.83583,0.24482 -15.1842,0.24482 -15.17886,0 -15.17886,0 -15.17886,-13.22031 z"
       id="path1" />
  </g>
</svg>
